<?xml version="1.0" encoding="utf-8"?>
<!-- Generator: Adobe Illustrator 26.1.0, SVG Export Plug-In . SVG Version: 6.00 Build 0)  -->
<svg version="1.1"
	 id="Layer_1" xmlns:cc="http://creativecommons.org/ns#" xmlns:dc="http://purl.org/dc/elements/1.1/" xmlns:inkscape="http://www.inkscape.org/namespaces/inkscape" xmlns:rdf="http://www.w3.org/1999/02/22-rdf-syntax-ns#" xmlns:sodipodi="http://sodipodi.sourceforge.net/DTD/sodipodi-0.dtd" xmlns:svg="http://www.w3.org/2000/svg"
	 xmlns="http://www.w3.org/2000/svg" xmlns:xlink="http://www.w3.org/1999/xlink" x="0px" y="0px" width="32px" height="32px"
	 viewBox="0 0 32 32" style="enable-background:new 0 0 32 32;" xml:space="preserve">
<style type="text/css">
	.st0{fill:#BAE1FF;}
	
		.st1{clip-path:url(#SVGID_00000122695739741114651990000016932271256872447668_);fill:#BAE1FF;stroke:#161616;stroke-width:0.75;stroke-linecap:round;stroke-linejoin:round;stroke-miterlimit:10;}
	.st2{fill:none;stroke:#161616;stroke-width:0.75;stroke-linecap:round;stroke-linejoin:round;stroke-miterlimit:10;}
	.st3{fill:#F2F2F2;stroke:#161616;stroke-width:0.75;stroke-linecap:round;stroke-linejoin:round;stroke-miterlimit:10;}
	.st4{fill:#161616;}
	
		.st5{clip-path:url(#SVGID_00000003800038344755092930000007711971057105738912_);fill:#161616;stroke:#161616;stroke-width:0.75;stroke-miterlimit:10;}
	.st6{fill:none;stroke:#161616;stroke-width:0.75;stroke-miterlimit:10;}
	
		.st7{clip-path:url(#SVGID_00000116203979341989161000000013873838770861846972_);fill:#161616;stroke:#161616;stroke-width:0.75;stroke-miterlimit:10;}
	
		.st8{clip-path:url(#SVGID_00000142163944346662710250000016336753422503048636_);fill:#BAE1FF;stroke:#161616;stroke-width:0.75;stroke-linecap:round;stroke-linejoin:round;stroke-miterlimit:10;}
	
		.st9{clip-path:url(#SVGID_00000073686036591580668390000003612177450851214005_);fill:#161616;stroke:#161616;stroke-width:0.75;stroke-miterlimit:10;}
	
		.st10{clip-path:url(#SVGID_00000039095291172604562860000008000452347657000834_);fill:#161616;stroke:#161616;stroke-width:0.75;stroke-miterlimit:10;}
</style>
<sodipodi:namedview  bordercolor="#666666" borderopacity="1" gridtolerance="10" guidetolerance="10" id="namedview82" inkscape:current-layer="g9" inkscape:cx="16" inkscape:cy="16" inkscape:pageopacity="0" inkscape:pageshadow="2" inkscape:window-height="480" inkscape:window-maximized="0" inkscape:window-width="640" inkscape:window-x="0" inkscape:window-y="0" inkscape:zoom="7.375" objecttolerance="10" pagecolor="#ffffff" showgrid="false">
	</sodipodi:namedview>
<g>
	<g>
		<g>
			<g>
				<path id="SVGID_33_" class="st0" d="M356.8,1096.9c0,0-0.5,0-0.5,0.5v21c0,0,0,0.5,0.5,0.5h24c0,0,0.5,0,0.5-0.5v-21
					c0,0,0-0.5-0.5-0.5H356.8z"/>
			</g>
			<g>
				<g>
					<g>
						<defs>
							<path id="SVGID_1_" d="M356.8,1096.9c0,0-0.5,0-0.5,0.5v21c0,0,0,0.5,0.5,0.5h24c0,0,0.5,0,0.5-0.5v-21c0,0,0-0.5-0.5-0.5
								H356.8z"/>
						</defs>
						<clipPath id="SVGID_00000085227014230861643280000000741415841322329271_">
							<use xlink:href="#SVGID_1_"  style="overflow:visible;"/>
						</clipPath>
						
							<rect x="356.3" y="1096.9" style="clip-path:url(#SVGID_00000085227014230861643280000000741415841322329271_);fill:#BAE1FF;stroke:#161616;stroke-width:0.75;stroke-linecap:round;stroke-linejoin:round;stroke-miterlimit:10;" width="25" height="22"/>
					</g>
				</g>
			</g>
			<g>
				<path id="SVGID_00000039123985274958570230000011530787028488984727_" class="st2" d="M356.8,1096.9c0,0-0.5,0-0.5,0.5v21
					c0,0,0,0.5,0.5,0.5h24c0,0,0.5,0,0.5-0.5v-21c0,0,0-0.5-0.5-0.5H356.8z"/>
			</g>
		</g>
	</g>
</g>
<rect x="359.5" y="1104.9" class="st3" width="4.5" height="4"/>
<rect x="366.5" y="1104.9" class="st3" width="4.5" height="4"/>
<rect x="373.5" y="1104.9" class="st3" width="4.5" height="4"/>
<rect x="359.5" y="1111.4" class="st3" width="4.5" height="4"/>
<rect x="366.5" y="1111.4" class="st3" width="4.5" height="4"/>
<rect x="373.5" y="1111.4" class="st3" width="4.5" height="4"/>
<g>
	<g>
		<g>
			<g>
				<g>
					<path id="SVGID_27_" class="st4" d="M361.5,1094.5c0,0-0.4,0-0.4,0.4v4.1c0,0,0,0.4,0.4,0.4h2.2c0,0,0.4,0,0.4-0.4v-4.1
						c0,0,0-0.4-0.4-0.4H361.5z"/>
				</g>
				<g>
					<g>
						<g>
							<defs>
								<path id="SVGID_00000154414148491120167100000002803597907868605088_" d="M361.5,1094.5c0,0-0.4,0-0.4,0.4v4.1
									c0,0,0,0.4,0.4,0.4h2.2c0,0,0.4,0,0.4-0.4v-4.1c0,0,0-0.4-0.4-0.4H361.5z"/>
							</defs>
							<clipPath id="SVGID_00000057121208784915137840000007278054138718651541_">
								<use xlink:href="#SVGID_00000154414148491120167100000002803597907868605088_"  style="overflow:visible;"/>
							</clipPath>
							
								<rect x="361.2" y="1094.5" style="clip-path:url(#SVGID_00000057121208784915137840000007278054138718651541_);fill:#161616;stroke:#161616;stroke-width:0.75;stroke-miterlimit:10;" width="3" height="4.9"/>
						</g>
					</g>
				</g>
				<g>
					<path id="SVGID_00000119803370644421337760000007668274566461548178_" class="st6" d="M361.5,1094.5c0,0-0.4,0-0.4,0.4v4.1
						c0,0,0,0.4,0.4,0.4h2.2c0,0,0.4,0,0.4-0.4v-4.1c0,0,0-0.4-0.4-0.4H361.5z"/>
				</g>
			</g>
		</g>
	</g>
	<g>
		<g>
			<g>
				<g>
					<path id="SVGID_25_" class="st4" d="M373.7,1094.5c0,0-0.4,0-0.4,0.4v4.1c0,0,0,0.4,0.4,0.4h2.2c0,0,0.4,0,0.4-0.4v-4.1
						c0,0,0-0.4-0.4-0.4H373.7z"/>
				</g>
				<g>
					<g>
						<g>
							<defs>
								<path id="SVGID_00000013887011513431605990000006150168252542203533_" d="M373.7,1094.5c0,0-0.4,0-0.4,0.4v4.1
									c0,0,0,0.4,0.4,0.4h2.2c0,0,0.4,0,0.4-0.4v-4.1c0,0,0-0.4-0.4-0.4H373.7z"/>
							</defs>
							<clipPath id="SVGID_00000013878637292656074000000011147012173021023929_">
								<use xlink:href="#SVGID_00000013887011513431605990000006150168252542203533_"  style="overflow:visible;"/>
							</clipPath>
							
								<rect x="373.3" y="1094.5" style="clip-path:url(#SVGID_00000013878637292656074000000011147012173021023929_);fill:#161616;stroke:#161616;stroke-width:0.75;stroke-miterlimit:10;" width="3" height="4.9"/>
						</g>
					</g>
				</g>
				<g>
					<path id="SVGID_00000098909459860928950790000007785443833772402570_" class="st6" d="M373.7,1094.5c0,0-0.4,0-0.4,0.4v4.1
						c0,0,0,0.4,0.4,0.4h2.2c0,0,0.4,0,0.4-0.4v-4.1c0,0,0-0.4-0.4-0.4H373.7z"/>
				</g>
			</g>
		</g>
	</g>
</g>
<g>
	<g>
		<g>
			<g>
				<path id="SVGID_00000031180333343506479670000000219815925477380003_" class="st0" d="M4,6.2c0,0-0.5,0-0.5,0.5v21
					c0,0,0,0.5,0.5,0.5h24c0,0,0.5,0,0.5-0.5v-21c0,0,0-0.5-0.5-0.5C28,6.3,4,6.3,4,6.2z"/>
			</g>
			<g>
				<g>
					<g>
						<defs>
							<path id="SVGID_00000050656838615992516490000000947172027639607200_" d="M4,6.2c0,0-0.5,0-0.5,0.5v21c0,0,0,0.5,0.5,0.5h24
								c0,0,0.5,0,0.5-0.5v-21c0,0,0-0.5-0.5-0.5C28,6.3,4,6.3,4,6.2z"/>
						</defs>
						<clipPath id="SVGID_00000070825398987737857360000018062596096755832461_">
							<use xlink:href="#SVGID_00000050656838615992516490000000947172027639607200_"  style="overflow:visible;"/>
						</clipPath>
						
							<rect x="3.5" y="6.2" style="clip-path:url(#SVGID_00000070825398987737857360000018062596096755832461_);fill:#BAE1FF;stroke:#161616;stroke-width:0.75;stroke-linecap:round;stroke-linejoin:round;stroke-miterlimit:10;" width="25" height="22"/>
					</g>
				</g>
			</g>
			<g>
				<path id="SVGID_00000072989774022864175900000001559079935706740636_" class="st2" d="M4,6.2c0,0-0.5,0-0.5,0.5v21
					c0,0,0,0.5,0.5,0.5h24c0,0,0.5,0,0.5-0.5v-21c0,0,0-0.5-0.5-0.5C27.6,6.2,5,6.2,4,6.2z"/>
			</g>
		</g>
	</g>
</g>
<rect x="6.8" y="15.9" class="st3" width="18.5" height="4"/>
<rect x="6.8" y="10.2" class="st3" width="18.5" height="4"/>
<rect x="6.8" y="21.8" class="st3" width="18.5" height="4"/>
<g>
	<g>
		<g>
			<g>
				<g>
					<path id="SVGID_00000020397105672294218620000013511089837676725418_" class="st4" d="M8.8,3.7c0,0-0.4,0-0.4,0.4v4.1
						c0,0,0,0.4,0.4,0.4H11c0,0,0.4,0,0.4-0.4v-4c0,0,0-0.4-0.4-0.4L8.8,3.7L8.8,3.7z"/>
				</g>
				<g>
					<g>
						<g>
							<defs>
								<path id="SVGID_00000101794600265624448600000009937344143679255431_" d="M8.8,3.7c0,0-0.4,0-0.4,0.4v4.1c0,0,0,0.4,0.4,0.4
									H11c0,0,0.4,0,0.4-0.4v-4c0,0,0-0.4-0.4-0.4L8.8,3.7L8.8,3.7z"/>
							</defs>
							<clipPath id="SVGID_00000032609114649578785830000003404715546281735587_">
								<use xlink:href="#SVGID_00000101794600265624448600000009937344143679255431_"  style="overflow:visible;"/>
							</clipPath>
							
								<rect x="8.4" y="3.7" style="clip-path:url(#SVGID_00000032609114649578785830000003404715546281735587_);fill:#161616;stroke:#161616;stroke-width:0.75;stroke-miterlimit:10;" width="3" height="4.9"/>
						</g>
					</g>
				</g>
				<g>
					<path id="SVGID_00000036941687076862910730000011572700479907826103_" class="st6" d="M8.8,3.7c0,0-0.4,0-0.4,0.4v4.1
						c0,0,0,0.4,0.4,0.4H11c0,0,0.4,0,0.4-0.4v-4c0,0,0-0.4-0.4-0.4L8.8,3.7L8.8,3.7z"/>
				</g>
			</g>
		</g>
	</g>
	<g>
		<g>
			<g>
				<g>
					<path id="SVGID_00000129190642944082630710000010096464398638894474_" class="st4" d="M21,3.7c0,0-0.4,0-0.4,0.4v4.1
						c0,0,0,0.4,0.4,0.4h2.2c0,0,0.4,0,0.4-0.4v-4c0,0,0-0.4-0.4-0.4L21,3.7L21,3.7z"/>
				</g>
				<g>
					<g>
						<g>
							<defs>
								<path id="SVGID_00000133499586551161019590000018016188807370516371_" d="M21,3.7c0,0-0.4,0-0.4,0.4v4.1c0,0,0,0.4,0.4,0.4
									h2.2c0,0,0.4,0,0.4-0.4v-4c0,0,0-0.4-0.4-0.4L21,3.7L21,3.7z"/>
							</defs>
							<clipPath id="SVGID_00000180366246101303819840000006425601987312566950_">
								<use xlink:href="#SVGID_00000133499586551161019590000018016188807370516371_"  style="overflow:visible;"/>
							</clipPath>
							
								<rect x="20.6" y="3.7" style="clip-path:url(#SVGID_00000180366246101303819840000006425601987312566950_);fill:#161616;stroke:#161616;stroke-width:0.75;stroke-miterlimit:10;" width="3" height="4.9"/>
						</g>
					</g>
				</g>
				<g>
					<path id="SVGID_00000085214421603116170550000012662880936999992960_" class="st6" d="M21,3.7c0,0-0.4,0-0.4,0.4v4.1
						c0,0,0,0.4,0.4,0.4h2.2c0,0,0.4,0,0.4-0.4v-4c0,0,0-0.4-0.4-0.4L21,3.7L21,3.7z"/>
				</g>
			</g>
		</g>
	</g>
</g>
</svg>
